<?xml version="1.0" encoding="iso-8859-1"?>
<!-- Generator: Adobe Illustrator 19.0.0, SVG Export Plug-In . SVG Version: 6.00 Build 0)  -->
<svg version="1.1" id="Layer_1" xmlns="http://www.w3.org/2000/svg" xmlns:xlink="http://www.w3.org/1999/xlink" x="0px" y="0px"
	 viewBox="0 0 295.238 295.238" style="enable-background:new 0 0 295.238 295.238;" xml:space="preserve">
<g>
	<g>
		<g>
			<path d="M261.905,185.714v-9.524H33.333v9.524h-9.523v100h9.524v9.524h228.571v-9.524h9.524v-100H261.905z M261.905,276.19
				h-9.524v9.524H42.856v-9.524h-9.524v-80.952h9.524v-9.524h209.524v9.524h9.524V276.19z"/>
			<path d="M52.38,204.762h-9.524v33.333h9.524v38.095h33.333v-80.952H52.38V204.762z M61.905,204.762h14.285v61.905H61.905v-38.095
				H52.38v-14.286h9.524V204.762z"/>
			<path d="M99.999,195.238v71.429h9.524v9.524h47.619v-9.524h9.524v-71.429h-33.333H99.999z M142.856,204.762h14.286v52.381h-9.524
				v9.524h-28.571v-9.524h-9.524v-52.381h14.286v47.619h19.047V204.762z"/>
			<path d="M238.095,195.238h-57.143v80.952h33.333v-19.048h23.81v-9.524h14.286v-42.857h-14.286V195.238z M228.57,247.62h-23.81
				v19.048h-14.286v-61.905h38.095v9.523h-23.808v23.81h23.809V247.62z M219.048,223.809v4.762h-4.762v-4.762H219.048z
				 M242.856,214.287v23.809h-14.285v-23.809H242.856z"/>
			<path d="M147.619,166.667c45.948,0,83.333-37.386,83.333-83.333C230.952,37.387,193.567,0,147.619,0S64.286,37.386,64.286,83.333
				C64.286,129.28,101.671,166.667,147.619,166.667z M147.619,9.524c40.7,0,73.81,33.11,73.81,73.81s-33.11,73.81-73.81,73.81
				s-73.81-33.11-73.81-73.81S106.919,9.524,147.619,9.524z"/>
			<path d="M104.762,90.476h28.571v-4.762h4.762V47.619h-4.762v-4.762h-28.571v4.762h-4.762v38.095h4.762V90.476z M109.523,57.143
				h4.762v-4.762h9.524v4.762h4.762V76.19h-4.762v4.762h-9.524V76.19h-4.762V57.143z"/>
			<path d="M161.905,90.476h28.571v-4.762h4.762V47.619h-4.762v-4.762h-28.571v4.762h-4.762v38.095h4.762V90.476z M166.666,57.143
				h4.762v-4.762h9.524v4.762h4.762V76.19h-4.762v4.762h-9.524V76.19h-4.762V57.143z"/>
			<polygon points="104.762,128.571 114.286,128.571 114.286,138.095 180.952,138.095 180.952,128.571 190.476,128.571 
				190.476,119.048 199.999,119.048 199.999,109.524 180.952,109.524 180.952,119.048 171.429,119.048 171.429,128.571 
				123.809,128.571 123.809,119.048 114.286,119.048 114.286,109.524 95.237,109.524 95.237,119.048 104.762,119.048 			"/>
		</g>
	</g>
</g>
<g>
</g>
<g>
</g>
<g>
</g>
<g>
</g>
<g>
</g>
<g>
</g>
<g>
</g>
<g>
</g>
<g>
</g>
<g>
</g>
<g>
</g>
<g>
</g>
<g>
</g>
<g>
</g>
<g>
</g>
</svg>
