<?xml version="1.0" encoding="iso-8859-1"?>
<!-- Generator: Adobe Illustrator 18.0.0, SVG Export Plug-In . SVG Version: 6.00 Build 0)  -->
<!DOCTYPE svg PUBLIC "-//W3C//DTD SVG 1.1//EN" "http://www.w3.org/Graphics/SVG/1.1/DTD/svg11.dtd">
<svg version="1.1" id="Capa_1" xmlns="http://www.w3.org/2000/svg" xmlns:xlink="http://www.w3.org/1999/xlink" x="0px" y="0px"
	 viewBox="0 0 198.233 198.233" style="enable-background:new 0 0 198.233 198.233;" xml:space="preserve">
<g>
	<path d="M197.164,185.409l-91.26-179.84c-1.277-2.518-3.861-4.104-6.685-4.106c-0.001,0-0.002,0-0.003,0
		c-2.822,0-5.405,1.584-6.685,4.1L0.815,185.87c-1.382,2.718-0.982,6.002,1.013,8.308c1.995,2.307,5.188,3.175,8.076,2.197
		l89.202-30.186l89.202,30.186c0.789,0.267,1.6,0.396,2.403,0.396c0.041,0,0.081,0,0.122-0.001c4.096-0.054,7.399-3.391,7.399-7.5
		C198.233,187.858,197.843,186.537,197.164,185.409z M94.217,152.007L22.53,176.266L94.217,35.335V152.007z M104.217,152.081V35.389
		l71.492,140.885L104.217,152.081z"/>
</g>
<g>
</g>
<g>
</g>
<g>
</g>
<g>
</g>
<g>
</g>
<g>
</g>
<g>
</g>
<g>
</g>
<g>
</g>
<g>
</g>
<g>
</g>
<g>
</g>
<g>
</g>
<g>
</g>
<g>
</g>
</svg>
