<?xml version="1.0" encoding="iso-8859-1"?>
<!-- Generator: Adobe Illustrator 19.0.0, SVG Export Plug-In . SVG Version: 6.00 Build 0)  -->
<svg version="1.1" id="Layer_1" xmlns="http://www.w3.org/2000/svg" xmlns:xlink="http://www.w3.org/1999/xlink" x="0px" y="0px"
	 viewBox="0 0 512.001 512.001" style="enable-background:new 0 0 512.001 512.001;" xml:space="preserve">
<g>
	<g>
		<path d="M443.008,373.463l-49.543-49.543c10.335-20.911,15.901-44.123,15.901-67.919c0-24.378-5.728-47.44-15.893-67.927
			l49.535-49.535c18.248,7.292,39.607,3.377,54.247-11.263c19.661-19.659,19.661-51.65,0.001-71.31
			c-6.788-6.787-15.151-11.381-24.194-13.475c-2.094-9.042-6.687-17.406-13.474-24.193c-19.662-19.659-51.651-19.659-71.31,0
			c-14.641,14.639-18.556,35.995-11.263,54.248l-48.405,48.405c-21.623-11.67-46.348-18.303-72.595-18.303
			s-50.972,6.632-72.595,18.303l-48.406-48.406c7.294-18.251,3.378-39.607-11.262-54.248c-19.661-19.661-51.651-19.662-71.31,0
			c-6.787,6.787-11.381,15.151-13.475,24.193c-9.041,2.094-17.407,6.689-24.193,13.475C5.245,65.49,0,78.153,0,91.621
			c0,13.468,5.245,26.132,14.769,35.655c14.639,14.639,35.995,18.554,54.248,11.263l49.535,49.535
			c-10.164,20.486-15.892,43.549-15.892,67.927c0,23.796,5.565,47.008,15.899,67.919l-49.543,49.543
			c-18.254-7.295-39.608-3.378-54.248,11.262C5.245,394.249,0,406.911,0,420.381c0,13.47,5.245,26.132,14.77,35.656
			c6.787,6.788,15.151,11.381,24.193,13.475c2.094,9.042,6.689,17.407,13.475,24.193c9.83,9.831,22.743,14.745,35.655,14.745
			s25.825-4.915,35.656-14.746c14.641-14.641,18.556-35.995,11.262-54.248l15.428-15.427l0.653,1.02
			c1.006,1.571,19.323,29.44,57.938,43.569v-74.553h33.393v82c4.364,0.406,8.89,0.628,13.59,0.628c4.734,0,9.292-0.226,13.687-0.638
			v-81.991h33.393v74.517c38.549-14.141,56.835-41.965,57.84-43.533l0.653-1.02l15.427,15.429
			c-7.293,18.251-3.377,39.607,11.263,54.247c9.831,9.832,22.741,14.747,35.655,14.746c12.912-0.001,25.826-4.917,35.657-14.746
			c6.787-6.787,11.38-15.15,13.474-24.193c9.042-2.094,17.407-6.689,24.192-13.475c19.661-19.661,19.661-51.651,0-71.31
			C482.614,370.084,461.259,366.168,443.008,373.463z M204.825,272.153c-15.539,0-28.135-12.597-28.135-28.136
			c0-15.539,12.597-28.135,28.135-28.135c15.539,0,28.135,12.597,28.135,28.135C232.961,259.556,220.364,272.153,204.825,272.153z
			 M236.444,323.101l19.568-33.895l19.569,33.895H236.444z M307.199,272.153c-15.539,0-28.135-12.597-28.135-28.136
			c0-15.539,12.597-28.135,28.135-28.135c15.539,0,28.135,12.597,28.135,28.135C335.333,259.556,322.738,272.153,307.199,272.153z"
			/>
	</g>
</g>
<g>
</g>
<g>
</g>
<g>
</g>
<g>
</g>
<g>
</g>
<g>
</g>
<g>
</g>
<g>
</g>
<g>
</g>
<g>
</g>
<g>
</g>
<g>
</g>
<g>
</g>
<g>
</g>
<g>
</g>
</svg>
