<?xml version="1.0" encoding="iso-8859-1"?>
<!-- Generator: Adobe Illustrator 19.0.0, SVG Export Plug-In . SVG Version: 6.00 Build 0)  -->
<svg version="1.1" id="Layer_1" xmlns="http://www.w3.org/2000/svg" xmlns:xlink="http://www.w3.org/1999/xlink" x="0px" y="0px"
	 viewBox="0 0 480.6 480.6" style="enable-background:new 0 0 480.6 480.6;" xml:space="preserve">
<g>
	<path style="fill:#E4C6A1;" d="M215.9,371.8v92h-72v-64c0-2.4-0.8-4.8-3.2-6.4L39.9,307.8L25.5,65.4c0-4.8,1.6-8.8,4.8-12.8
		c3.2-3.2,7.2-4.8,12-4.8c8.8,0,15.2,6.4,16.8,14.4l28.8,202.4c0,2.4,1.6,4,3.2,4.8L215.9,371.8z"/>
	<path style="fill:#E4C6A1;" d="M449.5,53.4c3.2,3.2,4.8,8,4.8,12.8l-14.4,241.6l-101.6,85.6c-1.6,1.6-2.4,4-2.4,6.4v64h-72v-92
		l124.8-101.6c1.6-1.6,2.4-3.2,3.2-4.8L420.7,63c0.8-8,8-14.4,16.8-14.4C442.3,47.8,446.3,49.4,449.5,53.4z"/>
</g>
<path style="fill:#42210B;" d="M247.9,367.8c0-2.4,0.8-4.8,3.2-6.4L376.7,259l28.8-199.2c2.4-16,16-28,32.8-28c8.8,0,17.6,4,24,10.4
	s9.6,15.2,8.8,24.8l-15.2,245.6c0,2.4-1.6,4-2.4,5.6l-101.6,85.6v68c0,4-4,8-8,8h-88c-4,0-8-4-8-8V367.8z M335.9,463.8v-64
	c0-2.4,0.8-4.8,2.4-6.4l101.6-85.6l14.4-242.4c0-4.8-1.6-8.8-4.8-12.8c-3.2-3.2-8-5.6-12-5.6c-8,0-15.2,6.4-16.8,14.4l-28.8,203.2
	c0,2.4-1.6,4-3.2,4.8L263.9,371.8v92H335.9z"/>
<path style="fill:#E94545;" d="M239.9,20.6c29.6,36.8,88,116.8,88,155.2c0,47.2-37.6,86.4-84.8,88c33.6-2.4,60.8-40.8,60.8-88
	C303.9,137.4,261.5,56.6,239.9,20.6z"/>
<path style="fill:#EE5656;" d="M175.9,175.8c0-38.4,42.4-119.2,64-155.2c21.6,36.8,64,116.8,64,155.2c0,47.2-27.2,85.6-60.8,88
	c-0.8,0-2.4,0-3.2,0s-2.4,0-3.2,0C203.1,261.4,175.9,223,175.9,175.8z"/>
<path style="fill:#E94545;" d="M239.9,20.6c-21.6,36.8-64,116.8-64,155.2c0,47.2,27.2,85.6,60.8,88c-47.2-1.6-84.8-40.8-84.8-88
	C151.9,137.4,210.3,56.6,239.9,20.6z"/>
<g>
	<path style="fill:#42210B;" d="M246.3,3c4,4.8,97.6,117.6,97.6,172.8c0,57.6-46.4,104-104,104s-104-46.4-104-104
		c0-55.2,93.6-168,97.6-172.8C236.7-1,243.1-1,246.3,3z M243.1,263.8c47.2-1.6,84.8-40.8,84.8-88c0-38.4-58.4-119.2-88-155.2
		c-29.6,36-88,116.8-88,155.2c0,47.2,37.6,86.4,84.8,88c0.8,0,2.4,0,3.2,0C240.7,263.8,242.3,263.8,243.1,263.8z"/>
	<path style="fill:#42210B;" d="M39.9,307.8l101.6,85.6c1.6,1.6,3.2,4,3.2,6.4v64h72v-92L91.1,270.2c-1.6-1.6-2.4-3.2-3.2-4.8
		L59.1,62.2c-1.6-8-8-14.4-16.8-14.4c-4.8,0-8.8,1.6-12,5.6c-3.2,3.2-4.8,8-4.8,12.8L39.9,307.8z M103.1,259.8l125.6,102.4
		c1.6,1.6,3.2,4,3.2,6.4v104c0,4-4,8-8,8h-88c-4,0-8-4-8-8v-68L26.3,318.2c-0.8-1.6-2.4-4-2.4-5.6L9.5,67
		c-0.8-8.8,2.4-17.6,8.8-24.8s15.2-10.4,24-10.4c16,0,30.4,12,32.8,28L103.1,259.8z"/>
</g>
<g>
	<path style="fill:#CC9966;" d="M63.1,302.2c-4.8-4-7.2-9.6-8-16L39.9,79.8c0-16.8,12-17.6,19.2-16.8v-0.8c-0.8-5.6-4-11.2-9.6-12.8
		c-7.2-3.2-14.4-1.6-19.2,4c-3.2,3.2-4.8,8-4.8,12.8l14.4,241.6l101.6,85.6c1.6,1.6,2.4,4,2.4,6.4v64h24v-42.4
		c0-13.6-5.6-26.4-16-36L63.1,302.2z"/>
	<path style="fill:#CC9966;" d="M416.7,302.2c4.8-4,7.2-9.6,8-16l15.2-206.4c0-16.8-12-17.6-19.2-16.8v-0.8c0.8-5.6,4-11.2,9.6-12.8
		c7.2-3.2,14.4-0.8,19.2,4c3.2,3.2,4.8,8,4.8,12.8l-14.4,241.6l-101.6,85.6c-1.6,1.6-2.4,4-2.4,6.4v64h-24v-42.4
		c0-13.6,5.6-26.4,16-36L416.7,302.2z"/>
</g>
<g>
</g>
<g>
</g>
<g>
</g>
<g>
</g>
<g>
</g>
<g>
</g>
<g>
</g>
<g>
</g>
<g>
</g>
<g>
</g>
<g>
</g>
<g>
</g>
<g>
</g>
<g>
</g>
<g>
</g>
</svg>
