<?xml version="1.0" encoding="iso-8859-1"?>
<!-- Generator: Adobe Illustrator 19.0.0, SVG Export Plug-In . SVG Version: 6.00 Build 0)  -->
<svg version="1.1" id="Layer_1" xmlns="http://www.w3.org/2000/svg" xmlns:xlink="http://www.w3.org/1999/xlink" x="0px" y="0px"
	 viewBox="0 0 512 512" style="enable-background:new 0 0 512 512;" xml:space="preserve">
<g>
	<polygon style="fill:#AA8B65;" points="420.363,447.446 381.302,364.404 350.168,351.744 307.082,167.191 175.426,167.191 
		131.099,357.059 87.749,369.731 58.749,447.446 	"/>
	<polygon style="fill:#AA8B65;" points="107.635,440.47 95.206,430.018 30.104,430.018 0,455.903 0,499.384 511.997,499.384 
		511.997,455.903 479.806,430.018 410.19,430.018 396.899,440.47 	"/>
</g>
<g>
	<polygon style="fill:#836948;" points="283.798,317.913 314.931,330.574 345.795,396.187 412.168,430.018 381.305,364.404 
		350.171,351.744 307.086,167.191 248.61,167.191 	"/>
	<path style="fill:#836948;" d="M479.809,430.018h-34.183l0,0c0,19.626-15.911,35.537-35.537,35.537H0.003v33.829H512v-43.481
		L479.809,430.018z"/>
</g>
<path style="fill:#830018;" d="M380.193,23.854l-10.84,8.13c-4.369,3.277-6.684,8.615-6.093,14.043l1.357,12.443
	c0.569,5.223,3.754,9.8,8.454,12.15l11.8,5.899c4.308,2.154,9.374,2.177,13.701,0.063l13.967-6.825
	c6.315-3.086,9.754-10.045,8.369-16.936l-3.057-15.212c-1.09-5.424-4.996-9.851-10.241-11.611l-13.227-4.436
	C389.565,19.948,384.26,20.804,380.193,23.854z"/>
<path id="SVGCleanerId_0" style="fill:#C70024;" d="M206.64,149.612c-4.329,0-7.837-3.509-7.837-7.837
	c0-71.219,57.94-129.159,129.159-129.159c4.329,0,7.837,3.509,7.837,7.837s-3.508,7.837-7.837,7.837
	c-62.576,0-113.486,50.909-113.486,113.486C214.477,146.103,210.969,149.612,206.64,149.612z"/>
<path style="fill:#C70024;" d="M274.884,149.612c-4.329,0-7.837-3.509-7.837-7.837c0-33.589,27.326-60.915,60.915-60.915
	c4.329,0,7.837,3.509,7.837,7.837c0,4.328-3.508,7.837-7.837,7.837c-24.947,0-45.242,20.295-45.242,45.242
	C282.72,146.103,279.213,149.612,274.884,149.612z"/>
<g>
	<path id="SVGCleanerId_0_1_" style="fill:#C70024;" d="M206.64,149.612c-4.329,0-7.837-3.509-7.837-7.837
		c0-71.219,57.94-129.159,129.159-129.159c4.329,0,7.837,3.509,7.837,7.837s-3.508,7.837-7.837,7.837
		c-62.576,0-113.486,50.909-113.486,113.486C214.477,146.103,210.969,149.612,206.64,149.612z"/>
</g>
<g>
	<path style="fill:#610012;" d="M240.762,174.947c-4.329,0-7.837-3.509-7.837-7.837v-20.457c0-9.314,1.221-18.555,3.63-27.467
		c1.13-4.18,5.436-6.65,9.609-5.521c4.179,1.13,6.651,5.431,5.521,9.61c-2.048,7.58-3.087,15.446-3.087,23.378v20.457
		C248.599,171.438,245.091,174.947,240.762,174.947z"/>
	<path style="fill:#610012;" d="M255.989,102.224c-1.445,0-2.906-0.399-4.213-1.234c-3.647-2.331-4.714-7.176-2.382-10.823
		c8.105-12.684,19.077-23.697,31.726-31.851c3.638-2.345,8.488-1.297,10.832,2.341c2.345,3.637,1.297,8.488-2.341,10.832
		c-10.771,6.943-20.111,16.32-27.013,27.119C261.105,100.946,258.574,102.224,255.989,102.224z"/>
	<path style="fill:#610012;" d="M308.392,61.873c-3.32,0-6.401-2.125-7.465-5.457c-1.316-4.123,0.961-8.533,5.084-9.848
		c10.295-3.284,21.043-4.949,31.945-4.949c4.329,0,7.837,3.509,7.837,7.837s-3.508,7.837-7.837,7.837
		c-9.284,0-18.43,1.416-27.183,4.208C309.984,61.754,309.181,61.873,308.392,61.873z"/>
	<path style="fill:#610012;" d="M167.537,220.351c10.676,0,19.41,8.734,19.41,19.41c0,0,0,15.314,0,17.148v61.004
		c0,10.676,8.734,19.41,19.41,19.41l0,0c10.676,0,19.41-8.734,19.41-19.41V258.43v-1.52V237.19c0-10.676,8.734-19.41,19.41-19.41
		l0,0c10.676,0,19.41,8.734,19.41,19.41v19.718v1.52v19.718c0,10.676,8.734,19.41,19.41,19.41l0,0c10.676,0,19.41-8.734,19.41-19.41
		v-17.148v-4.092v-17.147c0-9.577,7.036-17.57,16.191-19.118l-12.479-53.451H175.461l-12.411,53.16H167.537L167.537,220.351z"/>
</g>
<path style="fill:#836948;" d="M186.512,460.697c-2.664,0-5.261-1.358-6.729-3.811c-2.225-3.714-1.018-8.526,2.696-10.75
	l49.402-29.591c2.387-1.429,5.352-1.487,7.792-0.149l13.584,7.443l35.561-8.207c1.612-0.372,3.298-0.225,4.819,0.42l34.918,14.796
	c3.985,1.689,5.847,6.288,4.158,10.273c-1.689,3.985-6.29,5.847-10.272,4.158l-32.578-13.804l-35.991,8.306
	c-1.873,0.433-3.842,0.16-5.527-0.764l-12.263-6.719l-45.55,27.283C189.272,460.337,187.883,460.697,186.512,460.697z"/>
<path style="fill:#C70024;" d="M380.964,32.609l-4.838,3.629c-1.95,1.463-2.983,3.845-2.719,6.268l0.606,5.554
	c0.254,2.331,1.676,4.374,3.773,5.423l5.266,2.633c1.923,0.961,4.184,0.972,6.115,0.028l6.234-3.046
	c2.819-1.377,4.354-4.484,3.736-7.559l-1.365-6.79c-0.487-2.421-2.23-4.397-4.57-5.183l-5.904-1.98
	C385.148,30.866,382.779,31.249,380.964,32.609z"/>
<g>
</g>
<g>
</g>
<g>
</g>
<g>
</g>
<g>
</g>
<g>
</g>
<g>
</g>
<g>
</g>
<g>
</g>
<g>
</g>
<g>
</g>
<g>
</g>
<g>
</g>
<g>
</g>
<g>
</g>
</svg>
