<!-- Generated by IcoMoon.io -->
<svg version="1.1" xmlns="http://www.w3.org/2000/svg" width="512" height="512" viewBox="0 0 512 512">
<title></title>
<g id="icomoon-ignore">
</g>
<path d="M512 256c-0.639-33.431-7.892-66.758-21.288-97.231-13.352-30.5-32.731-58.129-56.521-80.96-23.776-22.848-51.972-40.91-82.492-52.826-30.502-11.962-63.298-17.676-95.699-16.983-32.405 0.641-64.666 7.687-94.167 20.678-29.524 12.948-56.271 31.735-78.367 54.788-22.112 23.041-39.58 50.354-51.093 79.899-11.557 29.531-17.064 61.26-16.373 92.635 0.643 31.38 7.482 62.574 20.067 91.103 12.544 28.55 30.738 54.414 53.055 75.774 22.305 21.377 48.736 38.252 77.307 49.36 28.559 11.152 59.223 16.451 89.571 15.763 30.354-0.645 60.481-7.277 88.038-19.457 27.575-12.141 52.558-29.74 73.183-51.322 20.641-21.57 36.922-47.118 47.627-74.715 6.517-16.729 10.94-34.2 13.271-51.899 0.623 0.036 1.249 0.060 1.881 0.060 17.673 0 32-14.326 32-32 0-0.898-0.047-1.786-0.119-2.666h0.119zM461.153 340.974c-11.736 26.601-28.742 50.7-49.589 70.59-20.835 19.905-45.5 35.593-72.122 45.895-26.614 10.339-55.145 15.226-83.442 14.541-28.302-0.649-56.298-6.868-81.91-18.237-25.625-11.333-48.842-27.745-67.997-47.856-19.169-20.099-34.264-43.882-44.161-69.529-9.935-25.642-14.614-53.107-13.932-80.378 0.651-27.276 6.664-54.206 17.627-78.845 10.929-24.65 26.749-46.985 46.123-65.405 19.365-18.434 42.265-32.935 66.937-42.428 24.669-9.53 51.068-14.003 77.313-13.322 26.25 0.653 52.114 6.459 75.781 17.017 23.676 10.525 45.128 25.751 62.812 44.391 17.698 18.629 31.605 40.647 40.695 64.344 9.124 23.696 13.391 49.029 12.712 74.248h0.119c-0.072 0.88-0.119 1.768-0.119 2.666 0 16.506 12.496 30.087 28.543 31.812-3.112 17.411-8.265 34.409-15.39 50.496z"></path>
</svg>
