<?xml version="1.0" encoding="iso-8859-1"?>
<!-- Generator: Adobe Illustrator 19.0.0, SVG Export Plug-In . SVG Version: 6.00 Build 0)  -->
<svg xmlns="http://www.w3.org/2000/svg" xmlns:xlink="http://www.w3.org/1999/xlink" version="1.1" id="Layer_1" x="0px" y="0px" viewBox="0 0 502 502" style="enable-background:new 0 0 502 502;" xml:space="preserve" width="512" height="512">
<g>
	<g>
		<path style="fill:#CCD7EB;" d="M451.854,203.069L451.854,203.069c-22.172,0-40.146-17.974-40.146-40.146v-0.854h-0.041v0.854    c0,22.172-17.974,40.146-40.146,40.146h0c-22.172,0-40.146-17.974-40.146-40.146v-0.854h-0.124v0.854    c0,22.172-17.974,40.146-40.146,40.146h0c-22.172,0-40.146-17.974-40.146-40.146v-0.854h-0.041v0.854    c0,22.172-17.974,40.146-40.146,40.146h0c-22.172,0-40.146-17.974-40.146-40.146c0,22.172-17.974,40.146-40.146,40.146h0    c-22.172,0-40.146-17.974-40.146-40.146v-0.854h-0.042v0.854c0,22.172-17.974,40.146-40.146,40.146h0    C27.974,203.069,10,185.095,10,162.923v275.146h482V162.923C492,185.095,474.026,203.069,451.854,203.069z"/>
		<g>
			<path style="fill:#4D93E8;" d="M10,162.069v0.854c0,22.172,17.974,40.146,40.146,40.146h0c22.172,0,40.146-17.974,40.146-40.146     v-0.854V63.931H10V162.069z"/>
			<path style="fill:#4D93E8;" d="M90.333,63.931v98.138v0.854c0,22.172,17.974,40.146,40.146,40.146h0     c22.172,0,40.146-17.974,40.146-40.146c0,22.172,17.974,40.146,40.146,40.146h0c22.172,0,40.146-17.974,40.146-40.146v-0.854     V63.931h-80.292H90.333z"/>
			<path style="fill:#4D93E8;" d="M250.959,162.069v0.854c0,22.172,17.974,40.146,40.146,40.146h0     c22.172,0,40.146-17.974,40.146-40.146v-0.854V63.931h-80.292V162.069z"/>
			<path style="fill:#4D93E8;" d="M331.375,162.069v0.854c0,22.172,17.974,40.146,40.146,40.146h0     c22.172,0,40.146-17.974,40.146-40.146v-0.854V63.931h-80.292V162.069z"/>
			<path style="fill:#4D93E8;" d="M411.708,63.931v98.138v0.854c0,22.172,17.974,40.146,40.146,40.146h0     c22.172,0,40.146-17.974,40.146-40.146v-0.854V63.931H411.708z"/>
		</g>
	</g>
	<rect x="200" y="253.069" style="fill:#4D93E8;" width="247.5" height="123"/>
	<rect x="55" y="252.069" style="fill:#4D93E8;" width="100" height="186"/>
	<g>
		<path d="M447.5,243.069H200c-5.523,0-10,4.477-10,10v123c0,5.523,4.477,10,10,10h247.5c5.523,0,10-4.477,10-10v-123    C457.5,247.546,453.023,243.069,447.5,243.069z M437.5,366.069H210v-103h227.5V366.069z"/>
		<path d="M358,294.069h16c5.523,0,10-4.477,10-10s-4.477-10-10-10h-16c-5.523,0-10,4.477-10,10S352.477,294.069,358,294.069z"/>
		<path d="M234,294.069h88c5.523,0,10-4.477,10-10s-4.477-10-10-10h-88c-5.523,0-10,4.477-10,10S228.477,294.069,234,294.069z"/>
		<path d="M84,327.069c-5.523,0-10,4.477-10,10v11c0,5.523,4.477,10,10,10s10-4.477,10-10v-11C94,331.546,89.523,327.069,84,327.069    z"/>
		<path d="M10,53.931c-5.523,0-10,4.477-10,10v374.138c0,5.523,4.477,10,10,10h482c5.523,0,10-4.477,10-10V63.931    c0-5.523-4.477-10-10-10H10z M421.708,73.931H482v88.138v0.854c0,16.623-13.523,30.146-30.146,30.146    s-30.146-13.523-30.146-30.146V73.931z M341.375,73.931h60.292v88.992c0,16.623-13.523,30.146-30.146,30.146h0    c-16.622,0-30.146-13.523-30.146-30.146V73.931z M260.958,73.931h60.292v88.992c0,16.623-13.523,30.146-30.146,30.146    s-30.146-13.523-30.146-30.146V73.931z M180.625,73.931h60.292v88.992c0,16.623-13.523,30.146-30.146,30.146    s-30.146-13.523-30.146-30.146V73.931z M100.333,73.931h60.292v88.992c0,16.623-13.523,30.146-30.146,30.146h0    c-16.622,0-30.146-13.523-30.146-30.146V73.931z M20,73.931h60.292v88.992c0,16.623-13.523,30.146-30.146,30.146    S20,179.545,20,162.923v-0.854V73.931z M65,428.069v-166h80v166H65z M165,428.069v-176c0-5.523-4.477-10-10-10H55    c-5.523,0-10,4.477-10,10v176H20V202.966c8.397,6.338,18.839,10.103,30.146,10.103c16.415,0,31.013-7.928,40.167-20.157    c9.153,12.229,23.752,20.157,40.167,20.157c16.403,0,30.991-7.917,40.146-20.13c9.155,12.213,23.743,20.13,40.146,20.13    c16.415,0,31.013-7.928,40.167-20.157c9.153,12.229,23.752,20.157,40.167,20.157c16.441,0,31.058-7.954,40.208-20.215    c9.151,12.261,23.768,20.215,40.208,20.215c16.415,0,31.013-7.928,40.166-20.157c9.153,12.228,23.752,20.157,40.167,20.157    c11.307,0,21.749-3.765,30.146-10.103v225.103H165z"/>
	</g>
</g>















</svg>
