<?xml version="1.0" encoding="iso-8859-1"?>
<!-- Generator: Adobe Illustrator 19.0.0, SVG Export Plug-In . SVG Version: 6.00 Build 0)  -->
<svg version="1.1" id="Capa_1" xmlns="http://www.w3.org/2000/svg" xmlns:xlink="http://www.w3.org/1999/xlink" x="0px" y="0px"
	 viewBox="0 0 58 58" style="enable-background:new 0 0 58 58;" xml:space="preserve">
<path style="fill:#F3D55B;" d="M32.743,22.201l8.686-8.964c0.315-0.315,0.315-0.827,0-1.143L29.571,0.237
	c-0.315-0.316-0.827-0.316-1.143,0L16.571,12.094c-0.315,0.316-0.315,0.827,0,1.143l8.686,8.964C26.375,23.355,27,24.898,27,26.505
	V33h-6c-1.105,0-2,0.895-2,2c0,1.104,0.895,2,2,2h6v19c0,1.104,0.895,2,2,2s2-0.896,2-2V37h6c1.105,0,2-0.896,2-2
	c0-1.105-0.895-2-2-2h-6v-6.495C31,24.898,31.625,23.355,32.743,22.201z"/>
<rect x="23.808" y="7.473" transform="matrix(-0.7071 0.7071 -0.7071 -0.7071 58.462 1.1151)" style="fill:#F29C1F;" width="10.384" height="10.384"/>
<g>
</g>
<g>
</g>
<g>
</g>
<g>
</g>
<g>
</g>
<g>
</g>
<g>
</g>
<g>
</g>
<g>
</g>
<g>
</g>
<g>
</g>
<g>
</g>
<g>
</g>
<g>
</g>
<g>
</g>
</svg>
